<svg xmlns="http://www.w3.org/2000/svg" viewBox="0 0 96 96" fill="none">
  <rect width="96" height="96" rx="22" fill="#0f2b1c"/>
  <path d="M48 16c-1.8 0-3.2 1.4-3.2 3.2v7c-5.8 1.1-10.2 6.2-10.2 12.4v2.1c-3.9 2.2-6.5 6.3-6.5 11v2.4c0 2.5 1.4 4.9 3.6 6l2.9 1.5c-2 2.2-3.2 5-3.2 8v1c0 6.2 4.5 11.4 10.5 12.3l5.1.8c1.4.2 2.8.2 4.2 0l5.1-.8c6-.9 10.5-6.1 10.5-12.3v-1c0-3-1.2-5.8-3.2-8l2.9-1.5c2.2-1.1 3.6-3.5 3.6-6v-2.4c0-4.7-2.6-8.8-6.5-11v-2.1c0-6.2-4.4-11.3-10.2-12.4v-7C51.2 17.4 49.8 16 48 16z" fill="#d8c49c"/>
  <path d="M48 29.5c-3.7 0-6.7 3-6.7 6.7v13.8c0 2.5 2 4.5 4.5 4.5h4.4c2.5 0 4.5-2 4.5-4.5V36.2c0-3.7-3-6.7-6.7-6.7z" fill="#1b5a35"/>
  <path d="M40.5 44.6c-3 0-5.5 2.4-5.5 5.5 0 2 1.1 3.8 2.7 4.8l4.7 2.9c1.7 1 3.8 1 5.5 0l4.7-2.9c1.7-1 2.7-2.8 2.7-4.8 0-3-2.4-5.5-5.5-5.5H40.5z" fill="#f1e4c7"/>
  <path d="M36.8 57.9c-2.6 0-4.6 2.1-4.6 4.6 0 1.6.8 3 2.1 3.9l7.6 5.2c1.7 1.2 4 1.2 5.7 0l7.6-5.2c1.3-.9 2.1-2.3 2.1-3.9 0-2.6-2.1-4.6-4.6-4.6H36.8z" fill="#d8c49c"/>
  <circle cx="48" cy="26.5" r="2.5" fill="#f1e4c7"/>
</svg>
